# xmcd CD database file
#
# Track frame offsets:
#	150
#	26395
#	50360
#	53840
#	73637
#	90350
#	114810
#	135450
#	155212
#	169640
#	185277
#
# Disc length: 2796 seconds
#
# Revision: 2
# Processed by: cddbd v1.5.1PL0 Copyright (c) Steve Scherf et al.
# Submitted via: CDex 1.51
#
DISCID=820aea0b
DTITLE=山本美絵 - オナモミ
DYEAR=2001
DGENRE=JPop
TTITLE0=「○○ゴッコ。」
TTITLE1=猫
TTITLE2=interlude 頭の旅
TTITLE3=トモダチ Album Version
TTITLE4=外は雨だよ
TTITLE5=カーネル
TTITLE6=エサをあたえないでください
TTITLE7=ある晴れた日に
TTITLE8=7:15
TTITLE9=アリの休日
TTITLE10=17
EXTD=YEAR: 2001
EXTT0=
EXTT1=
EXTT2=
EXTT3=
EXTT4=
EXTT5=
EXTT6=
EXTT7=
EXTT8=
EXTT9=
EXTT10=
PLAYORDER=
